<svg width="92" height="77" viewBox="0 0 92 77" fill="none" xmlns="http://www.w3.org/2000/svg">
<g clip-path="url(#clip0_401_74)">
<path d="M7.66667 0H0V76.6667H7.66667V0Z" fill="white"/>
<path d="M19.8711 10.877H24.5184C26.268 10.877 27.7442 11.0053 28.947 11.2619C30.1681 11.5185 31.216 11.9401 32.0908 12.5266C33.4577 13.4064 34.5056 14.5795 35.2346 16.0459C35.9636 17.5122 36.3281 19.1894 36.3281 21.0773C36.3281 23.1302 35.8907 24.9357 35.0159 26.4937C34.1411 28.0517 32.9018 29.234 31.298 30.0405C30.4779 30.462 29.5575 30.7645 28.537 30.9478C27.5346 31.1127 26.2953 31.1952 24.8191 31.1952H19.8711V10.877ZM24.5184 28.1708C25.8853 28.1708 27.0243 28.0792 27.9356 27.8959C28.8468 27.6943 29.6305 27.3735 30.2865 26.9336C31.1796 26.3471 31.8721 25.5405 32.3642 24.5141C32.8745 23.4693 33.1296 22.3146 33.1296 21.0498C33.1296 19.6385 32.8289 18.3829 32.2275 17.2831C31.6261 16.1833 30.7877 15.3494 29.7125 14.7811C29.0746 14.4696 28.3638 14.2496 27.5802 14.1213C26.7965 13.9747 25.7577 13.9013 24.4637 13.9013H23.0422V28.1708H24.5184ZM46.1111 10.877H48.8448L57.4013 31.1952H53.9022L51.4965 25.4214H43.5688L41.0811 31.1952H37.6093L46.1111 10.877ZM50.2117 22.397L47.478 15.1936L44.7169 22.397H50.2117ZM66.3469 10.877H69.0806L77.6371 31.1952H74.138L71.7323 25.4214H63.8045L61.3168 31.1952H57.845L66.3469 10.877ZM70.4474 22.397L67.7137 15.1936L64.9527 22.397H70.4474ZM81.744 25.4214C81.9448 27.4743 83.0199 28.5008 84.9698 28.5008C85.8992 28.5008 86.6557 28.2258 87.2388 27.6759C87.8223 27.1077 88.1135 26.3837 88.1135 25.5039C88.1135 24.9174 87.9863 24.4316 87.7308 24.0467C87.4943 23.6434 87.1662 23.3044 86.7467 23.0294C86.3277 22.7361 85.854 22.4887 85.3251 22.2871C84.7968 22.0671 84.2411 21.8655 83.6576 21.6822C82.1088 21.1507 80.9607 20.4358 80.2131 19.5376C79.4845 18.6395 79.1196 17.5214 79.1196 16.1833C79.1196 15.3769 79.2658 14.6345 79.557 13.9563C79.8672 13.2598 80.2772 12.6641 80.7872 12.1692C81.3161 11.6559 81.9264 11.2527 82.6188 10.9594C83.3295 10.6662 84.095 10.5195 84.9151 10.5195C85.7536 10.5195 86.5191 10.657 87.2114 10.9319C87.9222 11.2069 88.5331 11.5918 89.043 12.0867C89.5719 12.5816 89.9819 13.1773 90.2732 13.8738C90.5834 14.5703 90.7563 15.3494 90.7926 16.2108H87.4848C87.4301 15.386 87.1662 14.7445 86.692 14.2862C86.2367 13.8097 85.6259 13.5714 84.8604 13.5714C84.1134 13.5714 83.503 13.8097 83.0288 14.2862C82.5552 14.7445 82.3181 15.3585 82.3181 16.1284C82.3181 16.4766 82.3727 16.7974 82.4821 17.0907C82.6098 17.3656 82.8101 17.6222 83.0835 17.8605C83.3569 18.0805 83.7217 18.3004 84.177 18.5204C84.6328 18.722 85.1979 18.9328 85.8719 19.1527C87.7855 19.7759 89.1618 20.5641 89.9998 21.5172C90.8567 22.452 91.2846 23.6801 91.2846 25.2015C91.2846 26.0996 91.1206 26.9427 90.7926 27.7309C90.4829 28.5008 90.0366 29.1698 89.4531 29.738C88.8884 30.3062 88.2229 30.7553 87.4575 31.0852C86.692 31.3968 85.854 31.5526 84.9424 31.5526C84.013 31.5526 83.1655 31.406 82.4001 31.1127C81.6346 30.8194 80.9607 30.407 80.3771 29.8755C79.8125 29.3256 79.3567 28.6749 79.0103 27.9234C78.6644 27.1719 78.4635 26.3379 78.4089 25.4214H81.744Z" fill="white"/>
<path d="M19.8711 41.5439H24.2177C26.7691 41.5439 28.6463 41.9839 29.8492 42.8637C31.0702 43.7251 31.6807 45.0724 31.6807 46.9053C31.6807 47.8951 31.5076 48.7016 31.1613 49.3248C30.8333 49.9297 30.2592 50.4429 29.4391 50.8645C30.6602 51.3594 31.535 52.0009 32.0635 52.7891C32.6102 53.5774 32.8836 54.6127 32.8836 55.8959C32.8836 57.857 32.2275 59.3417 30.9153 60.35C29.6031 61.3583 27.6713 61.8622 25.1198 61.8622H19.8711V41.5439ZM25.2018 58.8378C26.7691 58.8378 27.9082 58.6089 28.619 58.1505C29.3297 57.6741 29.6851 56.9042 29.6851 55.841C29.6851 54.8876 29.3753 54.1363 28.7557 53.5864C28.1542 53.0365 27.3341 52.7616 26.2953 52.7616H23.0422V58.8378H25.2018ZM25.9126 49.6822C27.6439 49.6822 28.5096 48.8391 28.5096 47.1528C28.5096 46.2546 28.218 45.6131 27.6348 45.2282C27.0699 44.8249 26.1495 44.6233 24.8738 44.6233H23.0422V49.6822H25.9126ZM38.98 41.5439V54.3563C38.98 57.5641 40.1919 59.1678 42.6158 59.1678C45.0762 59.1678 46.3063 57.5641 46.3063 54.3563V41.5439H49.4774V54.3563C49.4774 56.8493 48.876 58.7828 47.6732 60.1576C46.4703 61.5323 44.7845 62.2196 42.6158 62.2196C40.4653 62.2196 38.7886 61.5323 37.5858 60.1576C36.4012 58.7828 35.8089 56.8493 35.8089 54.3563V41.5439H38.98ZM53.4821 41.5439H59.0316C64.3528 41.5439 67.014 43.716 67.014 48.0601C67.014 51.4877 65.1824 53.5774 61.5192 54.3288L67.0413 61.8622H63.1321L56.6532 52.5691V61.8622H53.4821V41.5439ZM58.7308 51.7168C60.4804 51.7168 61.7653 51.4327 62.5854 50.8645C63.4055 50.278 63.8156 49.3615 63.8156 48.1151C63.8156 46.8503 63.4144 45.943 62.6127 45.3931C61.8105 44.8433 60.5078 44.5683 58.7035 44.5683H56.6532V51.7168H58.7308ZM69.1042 51.7168C69.1042 50.2321 69.3776 48.8574 69.9244 47.5927C70.4895 46.3096 71.2455 45.1915 72.1933 44.2384C73.1591 43.2852 74.2983 42.5429 75.6105 42.0113C76.9227 41.4615 78.3258 41.1865 79.8204 41.1865C81.2603 41.1865 82.6088 41.4615 83.8663 42.0113C85.1422 42.5612 86.2446 43.3127 87.1741 44.2659C88.1219 45.219 88.869 46.3371 89.4157 47.6202C89.9625 48.8849 90.2359 50.2413 90.2359 51.6893C90.2359 53.1555 89.9625 54.5302 89.4157 55.8135C88.869 57.0967 88.1219 58.2145 87.1741 59.1678C86.2446 60.1026 85.1422 60.8449 83.8663 61.3948C82.5904 61.9447 81.2146 62.2196 79.7384 62.2196C78.2622 62.2196 76.8769 61.9447 75.5831 61.3948C74.2894 60.8449 73.1591 60.1026 72.1933 59.1678C71.2455 58.2145 70.4895 57.0967 69.9244 55.8135C69.3776 54.5302 69.1042 53.165 69.1042 51.7168ZM72.3027 51.6893C72.3027 52.7341 72.494 53.7149 72.8768 54.6312C73.2779 55.5295 73.8062 56.3173 74.4623 56.9957C75.1368 57.6741 75.9201 58.2055 76.8133 58.5904C77.7244 58.9753 78.6996 59.1678 79.7384 59.1678C80.7588 59.1678 81.7156 58.9753 82.6088 58.5904C83.502 58.2055 84.2764 57.6831 84.9324 57.0232C85.5885 56.3633 86.099 55.5845 86.4633 54.6862C86.846 53.7699 87.0374 52.7891 87.0374 51.7443C87.0374 50.6812 86.846 49.6914 86.4633 48.7749C86.0806 47.8585 85.5523 47.0703 84.8778 46.4104C84.2217 45.7322 83.4378 45.2007 82.5268 44.8158C81.6157 44.4308 80.6316 44.2384 79.5744 44.2384C78.5718 44.2384 77.6245 44.44 76.7313 44.8433C75.8565 45.2282 75.0911 45.7597 74.435 46.4379C73.7789 47.0978 73.2595 47.886 72.8768 48.8024C72.494 49.7006 72.3027 50.6629 72.3027 51.6893Z" fill="white"/>
</g>
<defs>
<clipPath id="clip0_401_74">
<rect width="92" height="76.6667" fill="white"/>
</clipPath>
</defs>
</svg>
